<?xml version="1.0" encoding="utf-8"?>
<!-- Generator: Adobe Illustrator 23.0.2, SVG Export Plug-In . SVG Version: 6.00 Build 0)  -->
<svg version="1.1" id="Layer_1" xmlns="http://www.w3.org/2000/svg" xmlns:xlink="http://www.w3.org/1999/xlink" x="0px" y="0px"
	 viewBox="0 0 241.5 52" style="enable-background:new 0 0 241.5 52;" xml:space="preserve">
<style type="text/css">
	.st0{fill:#90D4C5;}
</style>
<g>
	<path class="st0" d="M64.5,30.1V20h7.6v2h-5.4v2h4.8v2h-4.8v2.1h5.5v2L64.5,30.1L64.5,30.1z"/>
	<path class="st0" d="M76.1,30.1l-3-7.8h2.3l1.7,5.2l1.7-5.2h2.3l-3,7.8H76.1z"/>
	<path class="st0" d="M85.5,32.4c-1.3,0-2.4-0.3-3.4-0.8l0.8-1.6c0.8,0.5,1.7,0.7,2.6,0.7c1.5,0,2.2-0.7,2.2-2.1v-0.4
		c-0.3,0.4-0.7,0.7-1.1,0.9c-0.4,0.2-0.9,0.3-1.4,0.3c-1,0-1.8-0.3-2.4-1c-0.7-0.7-1-1.5-1-2.7c0-1.1,0.3-2,1-2.6
		c0.7-0.6,1.5-1,2.4-1c1,0,1.8,0.4,2.5,1.2v-1h2.2v6c0,1.4-0.3,2.4-1,3C88.2,32.1,87.1,32.4,85.5,32.4z M84.4,27.1
		c0.4,0.3,0.8,0.5,1.3,0.5s1-0.2,1.3-0.5c0.4-0.3,0.5-0.8,0.5-1.3c0-0.5-0.2-0.9-0.5-1.3c-0.4-0.3-0.8-0.5-1.3-0.5
		c-0.5,0-1,0.2-1.3,0.5c-0.4,0.3-0.5,0.8-0.5,1.3C83.9,26.4,84.1,26.8,84.4,27.1z"/>
	<path class="st0" d="M95.5,30.3c-1.2,0-2.1-0.4-2.9-1.1c-0.8-0.7-1.1-1.7-1.1-2.9c0-1.1,0.4-2.1,1.1-2.9c0.7-0.8,1.6-1.2,2.7-1.2
		c1.2,0,2.2,0.4,2.8,1.2c0.6,0.8,1,1.8,1,3c0,0.1,0,0.3,0,0.6h-5.4c0.1,0.5,0.3,0.9,0.6,1.1c0.3,0.3,0.7,0.4,1.2,0.4
		c0.7,0,1.3-0.3,1.9-0.8l1.3,1.1C97.8,29.8,96.8,30.3,95.5,30.3z M93.6,25.6h3.3c-0.1-0.5-0.2-0.9-0.5-1.2c-0.3-0.3-0.7-0.4-1.1-0.4
		c-0.4,0-0.8,0.1-1.1,0.4C93.8,24.7,93.7,25.1,93.6,25.6z"/>
	<path class="st0" d="M100.6,30.1v-7.7h2.2v1.1c0.6-0.8,1.4-1.2,2.3-1.2c0.8,0,1.5,0.3,1.9,0.8c0.5,0.5,0.7,1.2,0.7,2.1v5h-2.2v-4.3
		c0-0.5-0.1-0.9-0.3-1.2c-0.2-0.3-0.6-0.4-1-0.4c-0.4,0-0.8,0.1-1,0.4c-0.2,0.3-0.4,0.7-0.4,1.2v4.3H100.6z"/>
	<path class="st0" d="M109.7,20v-1h2.3v1H109.7z M109.7,30.1v-7.7h2.2v7.7H109.7z"/>
	<path class="st0" d="M115.8,32.4c-0.7,0-1.3-0.2-1.9-0.5l0.7-1.6c0.3,0.2,0.7,0.3,0.9,0.3c0.3,0,0.6-0.2,0.8-0.5l-3-7.8h2.3
		l1.8,5.3l1.7-5.3h2.3l-3,7.9c-0.3,0.8-0.6,1.4-1,1.7C117,32.3,116.5,32.4,115.8,32.4z"/>
	<path class="st0" d="M130.8,30.2c-1.7,0-3.1-0.5-4.3-1.6l1.3-1.6c1,0.8,2,1.2,3,1.2c0.4,0,0.8-0.1,1.1-0.3c0.3-0.2,0.4-0.4,0.4-0.7
		c0-0.3-0.1-0.5-0.4-0.7c-0.3-0.2-0.8-0.4-1.6-0.6c-0.6-0.1-1-0.3-1.4-0.4c-0.4-0.1-0.7-0.3-1-0.6c-0.3-0.2-0.6-0.5-0.7-0.9
		c-0.1-0.4-0.2-0.8-0.2-1.3c0-0.9,0.3-1.6,1-2.2c0.7-0.6,1.5-0.8,2.5-0.8c1.4,0,2.7,0.4,3.8,1.3l-1.2,1.7c-1-0.7-1.8-1-2.6-1
		c-0.4,0-0.7,0.1-1,0.3c-0.2,0.2-0.3,0.4-0.3,0.7c0,0.3,0.1,0.6,0.4,0.7c0.3,0.2,0.9,0.4,1.8,0.6c1.1,0.3,1.9,0.7,2.4,1.1
		c0.5,0.5,0.8,1.1,0.8,1.9c0,1-0.3,1.7-1,2.3C132.8,30,131.9,30.2,130.8,30.2z"/>
	<path class="st0" d="M138.8,30.1v-4L135,20h2.6L140,24l2.5-4.1h2.5l-3.9,6.1v4L138.8,30.1L138.8,30.1z"/>
	<path class="st0" d="M146.3,30.1V20h2l4.7,6.2V20h2.2v10.1h-1.9l-4.9-6.4v6.4H146.3L146.3,30.1z"/>
	<path class="st0" d="M157.7,30.1V20h7.6v2h-5.4v2h4.8v2h-4.8v2.1h5.5v2L157.7,30.1L157.7,30.1z"/>
	<path class="st0" d="M167.4,30.1V20h2l4.7,6.2V20h2.2v10.1h-1.9l-4.9-6.4v6.4H167.4L167.4,30.1z"/>
	<path class="st0" d="M183.5,30.3c-1.5,0-2.7-0.5-3.7-1.5c-1-1-1.5-2.2-1.5-3.7c0-1.5,0.5-2.7,1.5-3.7c1-1,2.3-1.5,3.8-1.5
		c0.9,0,1.6,0.1,2.2,0.4c0.6,0.3,1.2,0.7,1.7,1.2l-1.3,1.5c-0.4-0.4-0.8-0.7-1.2-0.9c-0.4-0.2-0.8-0.3-1.4-0.3
		c-0.9,0-1.5,0.3-2.1,0.9c-0.6,0.6-0.8,1.4-0.8,2.3c0,0.9,0.3,1.6,0.8,2.3c0.6,0.6,1.3,0.9,2.1,0.9c0.5,0,1-0.1,1.4-0.3
		c0.4-0.2,0.8-0.5,1.3-0.9l1.4,1.5c-0.5,0.6-1.1,1-1.8,1.3C185.2,30.1,184.4,30.3,183.5,30.3z"/>
	<path class="st0" d="M189.4,30.1V20h2.2v4h4.1v-4h2.2v10.1h-2.2V26h-4.1v4.1H189.4L189.4,30.1z"/>
	<path class="st0" d="M200.4,30.1V20h7.6v2h-5.4v2h4.8v2h-4.8v2.1h5.5v2L200.4,30.1L200.4,30.1z"/>
	<path class="st0" d="M210,30.1V20h2l4.7,6.2V20h2.2v10.1h-1.9l-4.9-6.4v6.4H210L210,30.1z"/>
	<path class="st0" d="M221.4,30.1V20h2.2v4.4l4.1-4.4h2.7l-4.1,4.3l4.3,5.8H228l-3.1-4.3l-1.2,1.2v3.1H221.4L221.4,30.1z"/>
	<path class="st0" d="M239.9,28.7c-1,1-2.3,1.5-3.8,1.5c-1.5,0-2.8-0.5-3.8-1.5s-1.5-2.2-1.5-3.7c0-1.5,0.5-2.7,1.5-3.7
		c1-1,2.3-1.5,3.8-1.5s2.8,0.5,3.8,1.5c1,1,1.5,2.2,1.5,3.7C241.5,26.5,241,27.7,239.9,28.7z M233.9,27.3c0.6,0.6,1.3,0.9,2.2,0.9
		c0.9,0,1.6-0.3,2.2-0.9c0.6-0.6,0.9-1.4,0.9-2.3c0-0.9-0.3-1.6-0.9-2.3c-0.6-0.6-1.3-0.9-2.2-0.9s-1.6,0.3-2.2,0.9
		c-0.6,0.6-0.9,1.4-0.9,2.3C233.1,25.9,233.3,26.7,233.9,27.3z"/>
</g>
<path class="st0" d="M41.5,31.8c-1.6,4.3-4.8,7.7-9.1,9.6c-2.6,1.1-5.3,1.5-7.9,1.3c5.9-4,8.3-11.7,5.4-18.5
	c-1.3-3.1,0.1-6.7,3.2-8.1c2.9-1.3,6.3-0.1,7.8,2.6c0.1,0.2,0.2,0.4,0.3,0.6l8.3-3.6c0,0,0,0,0,0l0,0c0,0,0,0,0,0
	C43.8,2.8,28.6-3.3,15.6,2.3C2.5,8-3.5,23.1,2.1,36.2l0,0c0,0,0,0,0,0c5.6,13,20.8,19.1,33.8,13.4c6.5-2.8,11.5-8,14-14.7L41.5,31.8
	z M19.1,10.6c2.6-1.1,5.3-1.5,7.9-1.3c-5.9,4-8.3,11.7-5.4,18.5c1.3,3.1-0.1,6.7-3.2,8.1c-3.1,1.3-6.7-0.1-8.1-3.2l0,0
	C6.7,24.1,10.6,14.3,19.1,10.6z"/>
</svg>
